<svg version="1.2" xmlns="http://www.w3.org/2000/svg" viewBox="0 0 104 30" width="104" height="30">
	<title>Gnome Shell Extension Vantage Controls Quick Settings Icon</title>
	<path style="fill: #3584e4;" d="m89.1 1c7.7 0 14 6.3 14 14 0 7.7-6.3 14-14 14h-8v-28zm-74.2 28c-7.7 0-14-6.3-14-14 0-7.7 6.3-14 14-14h65.6v28z"/>
	<path style="fill: #ffffff;" d="m10.3 10.2l3.2 9.7h3.2l3.3-9.7h-3.3l-1.6 6.5-1.6-6.5z"/>
	<path style="fill: #ffffff;" d="m30.3 16.3l0.7 0.7q-0.5 0.5-1.1 0.8-0.6 0.3-1.4 0.3-0.7 0-1.3-0.2-0.6-0.3-1-0.7-0.4-0.4-0.7-1-0.2-0.6-0.2-1.3 0-0.7 0.2-1.3 0.3-0.5 0.7-1 0.4-0.4 1-0.7 0.6-0.2 1.3-0.2 0.7 0 1.3 0.3 0.6 0.2 1 0.7l-0.7 0.7q-0.3-0.4-0.7-0.6-0.4-0.2-0.9-0.2-0.4 0-0.9 0.2-0.4 0.1-0.7 0.4-0.3 0.3-0.4 0.8-0.2 0.4-0.2 0.9 0 0.5 0.2 1 0.1 0.4 0.4 0.7 0.3 0.3 0.7 0.5 0.5 0.1 0.9 0.1 0.6 0 1-0.2 0.4-0.2 0.8-0.7zm3.3-2.7q0.4 0 0.8 0.2 0.4 0.2 0.7 0.5 0.3 0.3 0.5 0.7 0.2 0.4 0.2 0.9 0 0.5-0.2 0.9-0.2 0.4-0.5 0.7-0.3 0.3-0.7 0.5-0.4 0.1-0.8 0.1-0.5 0-0.9-0.1-0.4-0.2-0.7-0.5-0.3-0.3-0.5-0.7-0.2-0.4-0.2-0.9 0-0.5 0.2-0.9 0.2-0.4 0.5-0.7 0.3-0.3 0.7-0.5 0.4-0.2 0.9-0.2zm0 3.7q0.2 0 0.4-0.1 0.2-0.1 0.4-0.3 0.2-0.2 0.3-0.4 0.1-0.3 0.1-0.6 0-0.3-0.1-0.6-0.1-0.2-0.3-0.4-0.2-0.2-0.4-0.3-0.2-0.1-0.4-0.1-0.3 0-0.5 0.1-0.2 0.1-0.4 0.3-0.2 0.2-0.3 0.4-0.1 0.3-0.1 0.6 0 0.3 0.1 0.6 0.1 0.2 0.3 0.4 0.2 0.2 0.4 0.3 0.2 0.1 0.5 0.1zm3.7-3.5v0.5q0.2-0.3 0.6-0.5 0.3-0.2 0.8-0.2 0.8 0 1.2 0.5 0.4 0.5 0.4 1.3v2.6h-1v-2.5q0-0.5-0.2-0.7-0.3-0.3-0.7-0.3-0.3 0-0.4 0.1-0.2 0.1-0.4 0.3-0.1 0.2-0.2 0.4-0.1 0.2-0.1 0.5v2.2h-0.9v-4.2zm4.1 2.9v-2.1h-0.7v-0.8h0.7v-1.3h1v1.3h1v0.8h-1v1.9q0 0.2 0 0.3 0.1 0.1 0.1 0.2 0.2 0.2 0.4 0.2 0.1 0 0.2-0.1 0.1 0 0.2 0l0.3 0.8q-0.2 0.1-0.4 0.1-0.2 0.1-0.4 0.1-0.3 0-0.6-0.1-0.2-0.1-0.4-0.3-0.4-0.4-0.4-1zm2.8 1.3v-4.2h0.9v0.6h0.1q0.1-0.1 0.2-0.3 0.1-0.1 0.3-0.2 0.2-0.1 0.4-0.2 0.1 0 0.3 0 0.2 0 0.4 0 0.1 0 0.2 0.1l-0.2 0.9q-0.1-0.1-0.3-0.1-0.1 0-0.2 0-0.3 0-0.5 0.1-0.1 0.1-0.3 0.2-0.1 0.2-0.2 0.4-0.1 0.3-0.1 0.5v2.2zm5-4.4q0.5 0 0.9 0.2 0.4 0.2 0.7 0.5 0.3 0.3 0.5 0.7 0.1 0.4 0.1 0.9 0 0.5-0.1 0.9-0.2 0.4-0.5 0.7-0.3 0.3-0.7 0.5-0.4 0.1-0.9 0.1-0.5 0-0.9-0.1-0.4-0.2-0.7-0.5-0.3-0.3-0.4-0.7-0.2-0.4-0.2-0.9 0-0.5 0.2-0.9 0.1-0.4 0.4-0.7 0.3-0.3 0.7-0.5 0.4-0.2 0.9-0.2zm0 3.7q0.3 0 0.5-0.1 0.2-0.1 0.4-0.3 0.2-0.2 0.3-0.4 0.1-0.3 0.1-0.6 0-0.3-0.1-0.6-0.1-0.2-0.3-0.4-0.2-0.2-0.4-0.3-0.2-0.1-0.5-0.1-0.2 0-0.4 0.1-0.3 0.1-0.5 0.3-0.1 0.2-0.2 0.4-0.1 0.3-0.1 0.6 0 0.3 0.1 0.6 0.1 0.2 0.2 0.4 0.2 0.2 0.5 0.3 0.2 0.1 0.4 0.1zm3.9-5.5v6.2h-1v-6.2zm2.5 6.3q-0.4 0-0.7-0.1-0.3-0.1-0.5-0.2-0.2-0.2-0.4-0.4-0.2-0.2-0.3-0.5l0.9-0.3q0.2 0.3 0.4 0.5 0.3 0.2 0.6 0.2 0.4 0 0.6-0.2 0.2-0.1 0.2-0.3 0-0.2-0.2-0.3-0.1-0.1-0.5-0.2l-0.6-0.2q-0.2 0-0.4-0.1-0.2-0.1-0.4-0.2-0.2-0.2-0.3-0.4-0.1-0.2-0.1-0.5 0-0.3 0.1-0.5 0.2-0.3 0.4-0.4 0.2-0.2 0.5-0.3 0.3-0.1 0.7-0.1 0.3 0 0.5 0.1 0.3 0.1 0.5 0.2 0.2 0.1 0.4 0.3 0.2 0.2 0.3 0.4l-0.8 0.4q-0.2-0.3-0.4-0.4-0.3-0.1-0.6-0.1-0.1 0-0.2 0-0.1 0-0.2 0.1-0.1 0-0.2 0.1 0 0.1 0 0.2 0 0.2 0.1 0.3 0.2 0.1 0.5 0.1l0.6 0.2q0.7 0.2 1 0.5 0.3 0.3 0.3 0.8 0 0.3-0.2 0.5-0.1 0.2-0.3 0.4-0.2 0.2-0.6 0.3-0.3 0.1-0.7 0.1z"/>
	<path style="fill: #ffffff;" d="m89.5 11.5c-0.3 0.3-0.3 0.7 0 1l2.5 2.5-2.5 2.5c-0.3 0.3-0.3 0.7 0 1 0.3 0.3 0.7 0.3 1 0l2.8-2.8c0.4-0.4 0.4-1 0-1.4l-2.8-2.8c-0.3-0.3-0.7-0.3-1 0z"/>
</svg>
